<?xml version="1.0" encoding="utf-8"?>
<!-- Generator: Adobe Illustrator 23.0.6, SVG Export Plug-In . SVG Version: 6.00 Build 0)  -->
<svg version="1.1" id="Ebene_1" xmlns="http://www.w3.org/2000/svg" xmlns:xlink="http://www.w3.org/1999/xlink" x="0px" y="0px"
     viewBox="0 0 130.8 82.2" style="enable-background:new 0 0 130.8 82.2;" xml:space="preserve">
<path d="M31.9,51.7V27.2c0-8-4.4-13.8-12.6-13.8c-3.3,0-6.5,1.3-9.1,3.9V0H0.7v51.7h9.4V28.6c0-4.9,3.1-6.7,6.1-6.7s6.2,1.7,6.2,6.7
    v23.1H31.9L31.9,51.7z M59.5,58.6v-2.1H37v2.1H59.5L59.5,58.6z M91.7,51.7V0h-9.4v17.2c-2.5-2.8-5.4-3.8-9.2-3.8
    c-3.7,0-7.1,1.3-9.2,3.4C60.1,20.6,60,27.1,60,32.7s0.1,12.2,3.8,16c2.1,2.1,5.6,3.4,9.3,3.4c4,0,6.8-1.1,9.4-4v3.6H91.7L91.7,51.7z
     M82.3,32.7c0,6.2-0.8,10.9-6.5,10.9c-5.7,0-6.4-4.7-6.4-10.9c0-6.2,0.7-10.8,6.4-10.8C81.5,21.9,82.3,26.6,82.3,32.7L82.3,32.7z
     M130.4,51.7V26.8c0-8.9-5.5-13.4-16.1-13.4c-6.3,0-9.9,1.2-13.6,5.2l6,5.9c2-2.3,3.6-3.1,7.3-3.1c5,0,7,1.8,7,6v1.9H112
    c-8.8,0-12.9,4.9-12.9,11c0,3.3,1.1,6.4,3.1,8.5c2.3,2.3,5.4,3.3,9.7,3.3c4.4,0,6.8-1.1,9.3-3.6v3.3H130.4L130.4,51.7z M120.9,37.7
    c0,2.3-0.4,3.8-1.4,4.8c-1.7,1.6-3.3,1.8-6,1.8c-3.7,0-5.4-1.7-5.4-4.4c0-2.7,1.9-4.3,5.3-4.3h7.5V37.7L120.9,37.7z"/>
<path d="M4.4,72.4V67H3.9v2.4H1.3V67H0.8v5.3h0.6v-2.4h2.5v2.4H4.4L4.4,72.4z M9.8,69.7c0-1.1,0-1.7-0.5-2.2C9,67.2,8.5,67,8,67
    s-1,0.2-1.4,0.6c-0.5,0.5-0.5,1-0.5,2.2s0,1.7,0.5,2.2C7,72.2,7.4,72.4,8,72.4s1-0.2,1.4-0.6C9.8,71.3,9.8,70.8,9.8,69.7L9.8,69.7z
     M9.3,69.7c0,1.1,0,1.5-0.4,1.8c-0.2,0.2-0.6,0.4-0.9,0.4c-0.4,0-0.7-0.1-0.9-0.4c-0.3-0.3-0.4-0.7-0.4-1.8s0-1.5,0.4-1.8
    c0.2-0.2,0.6-0.4,0.9-0.4c0.4,0,0.7,0.1,0.9,0.4C9.2,68.2,9.3,68.6,9.3,69.7L9.3,69.7z M15,70.8h-0.6c-0.1,0.7-0.6,1.1-1.3,1.1
    c-0.4,0-0.7-0.1-0.9-0.4c-0.3-0.3-0.4-0.7-0.4-1.8s0-1.5,0.4-1.8c0.2-0.2,0.6-0.4,0.9-0.4c0.7,0,1.1,0.4,1.3,1.1H15
    c-0.2-1-0.9-1.6-1.9-1.6c-0.5,0-1,0.2-1.4,0.6c-0.5,0.5-0.5,1-0.5,2.2s0,1.7,0.5,2.2c0.4,0.4,0.8,0.6,1.4,0.6
    C14.1,72.4,14.8,71.8,15,70.8L15,70.8z M20.1,72.4V67h-0.6v2.4H17V67h-0.6v5.3H17v-2.4h2.5v2.4H20.1L20.1,72.4z M25.2,70.9
    c0-0.4-0.2-0.8-0.4-1.1c-0.2-0.2-0.5-0.3-1-0.4l-0.6-0.1c-0.3,0-0.6-0.1-0.7-0.3c-0.2-0.1-0.2-0.4-0.2-0.6c0-0.6,0.4-1,1.1-1
    c0.6,0,0.9,0.2,1.2,0.5l0.4-0.4c-0.5-0.4-0.9-0.6-1.6-0.6c-1.1,0-1.7,0.6-1.7,1.5c0,0.4,0.1,0.8,0.4,1c0.2,0.2,0.6,0.3,1,0.4
    l0.6,0.1c0.4,0.1,0.5,0.1,0.7,0.3c0.2,0.2,0.3,0.4,0.3,0.7c0,0.6-0.5,1-1.3,1c-0.6,0-1-0.1-1.5-0.6l-0.4,0.4c0.5,0.5,1,0.7,1.8,0.7
    C24.5,72.4,25.2,71.8,25.2,70.9L25.2,70.9z M30.1,70.8h-0.6c-0.1,0.7-0.6,1.1-1.3,1.1c-0.4,0-0.7-0.1-0.9-0.4
    C27,71.2,27,70.8,27,69.7s0-1.5,0.4-1.8c0.2-0.2,0.6-0.4,0.9-0.4c0.7,0,1.1,0.4,1.3,1.1h0.6c-0.2-1-0.9-1.6-1.9-1.6
    c-0.5,0-1,0.2-1.4,0.6c-0.5,0.5-0.5,1-0.5,2.2s0,1.7,0.5,2.2c0.4,0.4,0.8,0.6,1.4,0.6C29.2,72.4,30,71.8,30.1,70.8L30.1,70.8z
     M35.3,72.4V67h-0.6v2.4h-2.5V67h-0.6v5.3h0.6v-2.4h2.5v2.4H35.3L35.3,72.4z M40.8,70.6V67h-0.6v3.5c0,0.8-0.5,1.3-1.3,1.3
    c-0.8,0-1.3-0.5-1.3-1.3V67h-0.6v3.6c0,1.1,0.8,1.8,1.9,1.8C40,72.4,40.8,71.7,40.8,70.6L40.8,70.6z M45.9,72.4v-0.5h-2.7V67h-0.6
    v5.3H45.9L45.9,72.4z M50.5,72.4v-0.5h-2.7v-1.9h2.3v-0.5h-2.3v-1.9h2.7V67h-3.3v5.3H50.5L50.5,72.4z M58.6,69.6
    c0-0.7,0-1.6-0.5-2.1c-0.3-0.3-0.8-0.5-1.4-0.5h-1.8v5.3h1.8c0.6,0,1-0.2,1.4-0.5C58.6,71.3,58.6,70.4,58.6,69.6L58.6,69.6z
     M58,69.6c0,0.7,0,1.4-0.4,1.8c-0.3,0.3-0.6,0.4-1.1,0.4h-1.2v-4.3h1.2c0.4,0,0.8,0.1,1.1,0.4C58.1,68.3,58,69,58,69.6L58,69.6z
     M63.9,72.4L62,67h-0.5l-2,5.3h0.6l0.4-1.2h2.3l0.4,1.2H63.9L63.9,72.4z M62.7,70.7h-2l1-2.8L62.7,70.7L62.7,70.7z M69,72.4
    l-1.3-2.4c0.7-0.1,1.2-0.7,1.2-1.4c0-0.9-0.7-1.5-1.6-1.5h-2v5.3h0.6V70h1.3l1.2,2.4H69L69,72.4z M68.3,68.5c0,0.7-0.4,1-1.1,1h-1.4
    v-2h1.4C67.8,67.5,68.3,67.9,68.3,68.5L68.3,68.5z M75.2,72.4V67h-0.6l-1.7,3.8L71.2,67h-0.6v5.3h0.6v-4.1l1.5,3.2h0.5l1.5-3.2v4.1
    H75.2L75.2,72.4z M80.3,70.9c0-0.4-0.2-0.8-0.4-1.1c-0.2-0.2-0.5-0.3-1-0.4l-0.6-0.1c-0.3,0-0.6-0.1-0.7-0.3
    c-0.2-0.1-0.2-0.4-0.2-0.6c0-0.6,0.4-1,1.1-1c0.6,0,0.9,0.2,1.2,0.5l0.4-0.4c-0.5-0.4-0.9-0.6-1.6-0.6c-1.1,0-1.7,0.6-1.7,1.5
    c0,0.4,0.1,0.8,0.4,1c0.2,0.2,0.6,0.3,1,0.4l0.6,0.1c0.4,0.1,0.5,0.1,0.7,0.3c0.2,0.2,0.3,0.4,0.3,0.7c0,0.6-0.5,1-1.3,1
    c-0.6,0-1-0.1-1.5-0.6l-0.4,0.4c0.5,0.5,1,0.7,1.8,0.7C79.6,72.4,80.3,71.8,80.3,70.9L80.3,70.9z M84.8,67.5V67h-3.7v0.5h1.5v4.8
    h0.6v-4.8H84.8L84.8,67.5z M89.6,72.4l-2-5.3h-0.5l-2,5.3h0.6l0.4-1.2h2.3l0.4,1.2H89.6L89.6,72.4z M88.4,70.7h-2l1-2.8L88.4,70.7
    L88.4,70.7z M94.6,69.6c0-0.7,0-1.6-0.5-2.1c-0.3-0.3-0.8-0.5-1.4-0.5h-1.8v5.3h1.8c0.6,0,1-0.2,1.4-0.5
    C94.6,71.3,94.6,70.4,94.6,69.6L94.6,69.6z M94,69.6c0,0.7,0,1.4-0.4,1.8c-0.3,0.3-0.6,0.4-1.1,0.4h-1.2v-4.3h1.2
    c0.4,0,0.8,0.1,1.1,0.4C94,68.3,94,69,94,69.6L94,69.6z M99.2,67.5V67h-3.7v0.5h1.5v4.8h0.6v-4.8H99.2L99.2,67.5z"/>
<path d="M4.5,79.6V76H3.9v3.5c0,0.8-0.5,1.3-1.3,1.3c-0.8,0-1.3-0.5-1.3-1.3V76H0.7v3.6c0,1.1,0.8,1.8,1.9,1.8
    C3.7,81.4,4.5,80.7,4.5,79.6L4.5,79.6z M10.1,81.4V76H9.5v4.3L6.7,76H6.2v5.3h0.6v-4.3l2.8,4.3H10.1L10.1,81.4z M12.6,81.4V76H12
    v5.3H12.6L12.6,81.4z M18,76h-0.6L16,80.3L14.6,76H14l1.8,5.3h0.5L18,76L18,76z M22.7,81.4v-0.5H20v-1.9h2.3v-0.5H20v-1.9h2.7V76
    h-3.3v5.3H22.7L22.7,81.4z M27.9,81.4l-1.3-2.4c0.7-0.1,1.2-0.7,1.2-1.4c0-0.9-0.7-1.5-1.6-1.5h-2v5.3h0.6V79H26l1.2,2.4H27.9
    L27.9,81.4z M27.2,77.5c0,0.7-0.4,1-1.1,1h-1.4v-2h1.4C26.8,76.5,27.2,76.9,27.2,77.5L27.2,77.5z M32.6,79.9c0-0.4-0.2-0.8-0.5-1.1
    c-0.2-0.2-0.5-0.3-1-0.4l-0.6-0.1c-0.3,0-0.6-0.1-0.7-0.3c-0.2-0.1-0.2-0.4-0.2-0.6c0-0.6,0.4-1,1.1-1c0.6,0,0.9,0.2,1.2,0.5
    l0.4-0.4c-0.5-0.4-0.9-0.6-1.6-0.6c-1.1,0-1.7,0.6-1.7,1.5c0,0.4,0.1,0.8,0.4,1c0.2,0.2,0.6,0.3,1,0.4l0.6,0.1
    c0.4,0.1,0.5,0.1,0.7,0.3c0.2,0.2,0.3,0.4,0.3,0.7c0,0.6-0.5,1-1.3,1c-0.6,0-1-0.1-1.5-0.6l-0.4,0.4c0.5,0.5,1,0.7,1.8,0.7
    C31.9,81.4,32.6,80.8,32.6,79.9L32.6,79.9z M34.8,81.4V76h-0.6v5.3H34.8L34.8,81.4z M39.9,76.5V76h-3.7v0.5h1.5v4.8h0.6v-4.8H39.9
    L39.9,76.5z M44.6,76H44l-1.2,2.6L41.5,76h-0.6l1.6,3.1v2.2H43v-2.2L44.6,76L44.6,76z M51.8,78.7c0-1.1,0-1.7-0.5-2.2
    c-0.4-0.4-0.8-0.6-1.4-0.6c-0.5,0-1,0.2-1.4,0.6C48,77,48,77.6,48,78.7s0,1.7,0.5,2.2c0.4,0.4,0.8,0.6,1.4,0.6c0.5,0,1-0.2,1.4-0.6
    C51.8,80.3,51.8,79.8,51.8,78.7L51.8,78.7z M51.2,78.7c0,1.1,0,1.5-0.4,1.8c-0.2,0.2-0.6,0.4-0.9,0.4c-0.4,0-0.7-0.1-0.9-0.4
    c-0.3-0.3-0.4-0.7-0.4-1.8s0-1.5,0.4-1.8c0.2-0.2,0.6-0.4,0.9-0.4c0.4,0,0.7,0.1,0.9,0.4C51.2,77.2,51.2,77.6,51.2,78.7L51.2,78.7z
     M56.7,76.5V76h-3.3v5.3h0.6V79h2.3v-0.5h-2.3v-2H56.7L56.7,76.5z M63.9,81.4l-2-5.3h-0.5l-2,5.3h0.6l0.4-1.2h2.3l0.4,1.2H63.9
    L63.9,81.4z M62.7,79.7h-2l1-2.8L62.7,79.7L62.7,79.7z M68.8,77.6c0-1-0.7-1.6-1.7-1.6h-2v5.3h0.6v-2.2h1.4
    C68.1,79.2,68.8,78.5,68.8,77.6L68.8,77.6z M68.2,77.6c0,0.7-0.5,1.1-1.1,1.1h-1.4v-2.1h1.4C67.8,76.5,68.2,76.9,68.2,77.6
    L68.2,77.6z M73.7,77.6c0-1-0.7-1.6-1.7-1.6h-2v5.3h0.6v-2.2h1.4C73,79.2,73.7,78.5,73.7,77.6L73.7,77.6z M73.1,77.6
    c0,0.7-0.5,1.1-1.1,1.1h-1.4v-2.1H72C72.7,76.5,73.1,76.9,73.1,77.6L73.1,77.6z M78.3,81.4v-0.5h-2.7V76H75v5.3H78.3L78.3,81.4z
     M80.1,81.4V76h-0.6v5.3H80.1L80.1,81.4z M85.3,81.4v-0.5h-2.7v-1.9h2.3v-0.5h-2.3v-1.9h2.7V76H82v5.3H85.3L85.3,81.4z M90.5,78.6
    c0-0.7,0-1.6-0.5-2.1c-0.3-0.3-0.8-0.5-1.4-0.5h-1.8v5.3h1.8c0.6,0,1-0.2,1.4-0.5C90.5,80.3,90.5,79.4,90.5,78.6L90.5,78.6z
     M89.9,78.6c0,0.7,0,1.4-0.4,1.8c-0.3,0.3-0.6,0.4-1.1,0.4h-1.2v-4.3h1.2c0.4,0,0.8,0.1,1.1,0.4C89.9,77.3,89.9,78,89.9,78.6
    L89.9,78.6z M98,79.9c0-0.4-0.2-0.8-0.4-1.1c-0.2-0.2-0.5-0.3-1-0.4L96,78.4c-0.3,0-0.6-0.1-0.7-0.3c-0.2-0.1-0.2-0.4-0.2-0.6
    c0-0.6,0.4-1,1.1-1c0.6,0,0.9,0.2,1.2,0.5l0.4-0.4c-0.5-0.4-0.9-0.6-1.6-0.6c-1.1,0-1.7,0.6-1.7,1.5c0,0.4,0.1,0.8,0.4,1
    c0.2,0.2,0.6,0.3,1,0.4l0.6,0.1c0.4,0.1,0.5,0.1,0.7,0.3c0.2,0.2,0.3,0.4,0.3,0.7c0,0.6-0.5,1-1.3,1c-0.6,0-1-0.1-1.5-0.6l-0.4,0.4
    c0.5,0.5,1,0.7,1.8,0.7C97.3,81.4,98,80.8,98,79.9L98,79.9z M102.9,79.8h-0.6c-0.1,0.7-0.6,1.1-1.3,1.1c-0.4,0-0.7-0.1-0.9-0.4
    c-0.3-0.3-0.4-0.7-0.4-1.8s0-1.5,0.4-1.8c0.2-0.2,0.6-0.4,0.9-0.4c0.7,0,1.1,0.4,1.3,1.1h0.6c-0.2-1-0.9-1.6-1.9-1.6
    c-0.5,0-1,0.2-1.4,0.6c-0.5,0.5-0.5,1-0.5,2.2s0,1.7,0.5,2.2c0.4,0.4,0.8,0.6,1.4,0.6C102,81.4,102.7,80.8,102.9,79.8L102.9,79.8z
     M105.1,81.4V76h-0.6v5.3H105.1L105.1,81.4z M110.3,81.4v-0.5h-2.7v-1.9h2.3v-0.5h-2.3v-1.9h2.7V76h-3.3v5.3H110.3L110.3,81.4z
     M115.7,81.4V76h-0.6v4.3l-2.8-4.3h-0.5v5.3h0.6v-4.3l2.8,4.3H115.7L115.7,81.4z M120.9,79.8h-0.6c-0.1,0.7-0.6,1.1-1.3,1.1
    c-0.4,0-0.7-0.1-0.9-0.4c-0.3-0.3-0.4-0.7-0.4-1.8s0-1.5,0.4-1.8c0.2-0.2,0.6-0.4,0.9-0.4c0.7,0,1.1,0.4,1.3,1.1h0.6
    c-0.2-1-0.9-1.6-1.9-1.6c-0.5,0-1,0.2-1.4,0.6c-0.5,0.5-0.5,1-0.5,2.2s0,1.7,0.5,2.2c0.4,0.4,0.8,0.6,1.4,0.6
    C120,81.4,120.7,80.8,120.9,79.8L120.9,79.8z M125.6,81.4v-0.5h-2.7v-1.9h2.3v-0.5h-2.3v-1.9h2.7V76h-3.3v5.3H125.6L125.6,81.4z
     M130.4,79.9c0-0.4-0.2-0.8-0.5-1.1c-0.2-0.2-0.5-0.3-1-0.4l-0.6-0.1c-0.3,0-0.6-0.1-0.7-0.3c-0.2-0.1-0.2-0.4-0.2-0.6
    c0-0.6,0.4-1,1.1-1c0.6,0,0.9,0.2,1.2,0.5l0.4-0.4c-0.5-0.4-0.9-0.6-1.6-0.6c-1.1,0-1.7,0.6-1.7,1.5c0,0.4,0.1,0.8,0.4,1
    c0.2,0.2,0.6,0.3,1,0.4l0.6,0.1c0.4,0.1,0.5,0.1,0.7,0.3c0.2,0.2,0.3,0.4,0.3,0.7c0,0.6-0.5,1-1.3,1c-0.6,0-1-0.1-1.5-0.6l-0.4,0.4
    c0.5,0.5,1,0.7,1.8,0.7C129.6,81.4,130.4,80.8,130.4,79.9L130.4,79.9z"/>
</svg>
